<svg width="1280" height="700" viewBox="0 0 1280 700" fill="none" xmlns="http://www.w3.org/2000/svg">
<g clip-path="url(#clip0_2_23442)">
<g opacity="0.5">
<g filter="url(#filter0_f_2_23442)">
<circle cx="1022" cy="789" r="159" fill="url(#paint0_linear_2_23442)" fill-opacity="0.6"/>
</g>
<g filter="url(#filter1_f_2_23442)">
<path d="M529 172C529 220.846 511.643 268.102 480.027 305.336C448.412 342.569 404.594 367.357 356.394 375.275C308.195 383.194 258.75 373.727 216.884 348.565C175.017 323.404 143.454 284.184 127.827 237.905C112.2 191.627 113.526 141.302 131.568 95.9101C149.61 50.5187 183.194 13.0151 226.327 -9.90746C269.46 -32.8301 319.335 -39.6801 367.051 -29.2351C414.766 -18.79 457.218 8.27038 486.83 47.1168L323 172L529 172Z" fill="url(#paint1_linear_2_23442)" fill-opacity="0.4"/>
</g>
<g filter="url(#filter2_f_2_23442)">
<ellipse cx="99" cy="921" rx="123" ry="118" fill="url(#paint2_linear_2_23442)" fill-opacity="0.6"/>
</g>
<g filter="url(#filter3_f_2_23442)">
<circle cx="1213.54" cy="230.544" r="171.217" transform="rotate(1.46681 1213.54 230.544)" fill="url(#paint3_linear_2_23442)" fill-opacity="0.45"/>
</g>
<g filter="url(#filter4_f_2_23442)">
<circle cx="34.2615" cy="710.261" r="192.399" transform="rotate(1.46681 34.2615 710.261)" fill="url(#paint4_linear_2_23442)" fill-opacity="0.45"/>
</g>
</g>
</g>
<defs>
<filter id="filter0_f_2_23442" x="713" y="480" width="618" height="618" filterUnits="userSpaceOnUse" color-interpolation-filters="sRGB">
<feFlood flood-opacity="0" result="BackgroundImageFix"/>
<feBlend mode="normal" in="SourceGraphic" in2="BackgroundImageFix" result="shape"/>
<feGaussianBlur stdDeviation="75" result="effect1_foregroundBlur_2_23442"/>
</filter>
<filter id="filter1_f_2_23442" x="-133" y="-284" width="912" height="912.001" filterUnits="userSpaceOnUse" color-interpolation-filters="sRGB">
<feFlood flood-opacity="0" result="BackgroundImageFix"/>
<feBlend mode="normal" in="SourceGraphic" in2="BackgroundImageFix" result="shape"/>
<feGaussianBlur stdDeviation="125" result="effect1_foregroundBlur_2_23442"/>
</filter>
<filter id="filter2_f_2_23442" x="-174" y="653" width="546" height="536" filterUnits="userSpaceOnUse" color-interpolation-filters="sRGB">
<feFlood flood-opacity="0" result="BackgroundImageFix"/>
<feBlend mode="normal" in="SourceGraphic" in2="BackgroundImageFix" result="shape"/>
<feGaussianBlur stdDeviation="75" result="effect1_foregroundBlur_2_23442"/>
</filter>
<filter id="filter3_f_2_23442" x="892.326" y="-90.6744" width="642.437" height="642.437" filterUnits="userSpaceOnUse" color-interpolation-filters="sRGB">
<feFlood flood-opacity="0" result="BackgroundImageFix"/>
<feBlend mode="normal" in="SourceGraphic" in2="BackgroundImageFix" result="shape"/>
<feGaussianBlur stdDeviation="75" result="effect1_foregroundBlur_2_23442"/>
</filter>
<filter id="filter4_f_2_23442" x="-308.139" y="367.861" width="684.801" height="684.801" filterUnits="userSpaceOnUse" color-interpolation-filters="sRGB">
<feFlood flood-opacity="0" result="BackgroundImageFix"/>
<feBlend mode="normal" in="SourceGraphic" in2="BackgroundImageFix" result="shape"/>
<feGaussianBlur stdDeviation="75" result="effect1_foregroundBlur_2_23442"/>
</filter>
<linearGradient id="paint0_linear_2_23442" x1="863" y1="789.733" x2="1181" y2="789.733" gradientUnits="userSpaceOnUse">
<stop stop-color="#D653B1"/>
<stop offset="1" stop-color="#3343D2" stop-opacity="0.76"/>
</linearGradient>
<linearGradient id="paint1_linear_2_23442" x1="117" y1="172.949" x2="529" y2="172.949" gradientUnits="userSpaceOnUse">
<stop stop-color="#D653B1"/>
<stop offset="1" stop-color="#3343D2" stop-opacity="0.76"/>
</linearGradient>
<linearGradient id="paint2_linear_2_23442" x1="-24" y1="921.544" x2="222" y2="921.544" gradientUnits="userSpaceOnUse">
<stop stop-color="#D653B1"/>
<stop offset="1" stop-color="#3343D2" stop-opacity="0.76"/>
</linearGradient>
<linearGradient id="paint3_linear_2_23442" x1="1042.33" y1="231.333" x2="1384.76" y2="231.333" gradientUnits="userSpaceOnUse">
<stop stop-color="#D653B1"/>
<stop offset="1" stop-color="#3343D2" stop-opacity="0.76"/>
</linearGradient>
<linearGradient id="paint4_linear_2_23442" x1="-158.138" y1="711.148" x2="226.661" y2="711.148" gradientUnits="userSpaceOnUse">
<stop stop-color="#D653B1"/>
<stop offset="1" stop-color="#3343D2" stop-opacity="0.76"/>
</linearGradient>
<clipPath id="clip0_2_23442">
<rect width="1280" height="700" fill="white"/>
</clipPath>
</defs>
</svg>
